<svg width="158" height="24" viewBox="0 0 158 24" fill="none" xmlns="http://www.w3.org/2000/svg">
<path d="M21.6809 1.67188V13.0981L17.4328 16.1077L16.065 17.0766L15.511 17.4693L13.96 18.5679L13.4215 18.9494L13.4083 18.9593L13.3945 18.9685V7.54225L13.4083 7.53268L21.6809 1.67188Z" fill="#2C699B"/>
<path opacity="0.72" d="M13.4211 7.54225V18.9685L13.408 18.9593L13.3941 18.9494L12.8556 18.5679L11.3046 17.4693L10.7507 17.0766L9.38287 16.1077L5.13477 13.0981V1.67188L13.408 7.53268L13.4211 7.54225Z" fill="#245B91"/>
<path d="M23.7984 5.16797V15.1617L17.4335 19.6715L16.0657 20.6403L15.5117 21.0327V18.2666L16.0657 17.8743L17.4335 16.9051L22.247 13.4945V6.26654L23.7984 5.16797Z" fill="url(#paint0_linear_7286_24154)"/>
<path d="M11.3059 18.2666V21.0327L10.7519 20.6403L9.38412 19.6715L3.01953 15.1617V5.16797L4.57055 6.26654V13.4945L9.38412 16.9051L10.7519 17.8743L11.3059 18.2666Z" fill="url(#paint1_linear_7286_24154)"/>
<path d="M9.38205 20.5648V22.232L1.0957 16.3616V8.35547L2.46349 9.31511V15.663L9.38205 20.5648Z" fill="url(#paint2_linear_7286_24154)"/>
<path d="M25.7199 8.35547V16.3616L17.4336 22.232V20.5648L24.3521 15.663V9.31511L25.7199 8.35547Z" fill="url(#paint3_linear_7286_24154)"/>
<g opacity="0.6">
<path opacity="0.6" d="M80.9204 17.0017C80.5369 17.5452 79.8142 17.9527 78.8888 17.9527C77.67 17.9527 76.9927 17.1607 76.8802 15.9598C76.8802 15.8698 76.8351 15.1223 76.8351 14.8732C76.5871 16.4572 74.9618 17.9299 73.066 17.9299C71.2827 17.9299 69.8613 17.0241 69.8613 15.1223C69.8613 12.6998 72.411 12.1335 75.0973 11.6355L76.8121 11.3184V10.0278C76.8121 8.37513 76.045 6.97131 74.1946 6.97131C72.5242 6.97131 71.892 7.83162 71.892 8.82789C71.892 9.5298 72.2982 10.0278 72.9301 10.0278C73.0315 10.0274 73.1315 10.0049 73.2232 9.96177C73.1107 10.6412 72.5913 10.9805 71.9374 10.9805C71.0117 10.9805 70.2896 10.3693 70.2896 9.32784C70.2896 7.85604 71.8686 6.54297 74.1943 6.54297C77.1282 6.54297 78.8885 7.67454 78.8885 10.3693C78.8885 12.3843 78.8207 13.8785 78.8207 15.2596C78.8207 16.5053 79.2951 17.1389 80.2428 17.1389C80.4807 17.1412 80.7149 17.0786 80.9201 16.9578L80.9204 17.0017ZM75.2999 12.0431C73.066 12.4721 71.9824 13.2885 71.9824 14.8959C71.9824 16.3902 72.818 16.9333 73.9009 16.9333C75.3226 16.9333 76.7223 15.7335 76.7674 13.6277L76.8121 11.7487L75.2999 12.0431Z" fill="#245B91"/>
<path opacity="0.6" d="M84.6883 6.76737V9.91656C85.2972 7.78806 86.7196 6.54297 88.6608 6.54297C90.7371 6.54297 92.1806 7.87881 92.1806 10.4825V15.3035C92.1806 16.7977 92.3835 17.2733 93.4664 17.7263V17.7706H88.9088V17.7257C89.992 17.2726 90.195 16.7971 90.195 15.3028V10.6617C90.195 9.05427 89.5858 7.67289 87.8029 7.67289C85.9969 7.67289 84.6883 9.39384 84.6883 11.9751V15.3035C84.6883 16.7977 84.8916 17.2733 85.9745 17.7263V17.7706H81.4152V17.7257C82.4988 17.2726 82.7021 16.7971 82.7021 15.3028V9.23544C82.7021 7.94481 82.3863 7.26534 81.3027 6.81291V6.76737H84.6883Z" fill="#245B91"/>
<path opacity="0.6" d="M105.95 17.0017C105.566 17.5452 104.844 17.9527 103.918 17.9527C102.701 17.9527 102.023 17.1607 101.91 15.9598C101.91 15.8698 101.865 15.1223 101.865 14.8732C101.616 16.4572 99.9914 17.9299 98.0956 17.9299C96.3127 17.9299 94.8906 17.0241 94.8906 15.1223C94.8906 12.6998 97.441 12.1335 100.127 11.6355L101.842 11.3184V10.0278C101.842 8.37513 101.075 6.97131 99.2242 6.97131C97.5542 6.97131 96.9216 7.83162 96.9216 8.82789C96.9216 9.5298 97.3275 10.0278 97.9594 10.0278C98.0608 10.0274 98.161 10.0048 98.2528 9.96177C98.14 10.6412 97.6209 10.9805 96.9663 10.9805C96.0413 10.9805 95.3186 10.3693 95.3186 9.32784C95.3186 7.85604 96.8976 6.54297 99.2236 6.54297C102.158 6.54297 103.918 7.67454 103.918 10.3693C103.918 12.3843 103.85 13.8785 103.85 15.2596C103.85 16.5053 104.324 17.1389 105.272 17.1389C105.51 17.1412 105.744 17.0786 105.949 16.9578L105.95 17.0017ZM100.33 12.0431C98.0956 12.4721 97.012 13.2885 97.012 14.8959C97.012 16.3902 97.8473 16.9333 98.9308 16.9333C100.353 16.9333 101.752 15.7335 101.797 13.6277L101.842 11.7487L100.33 12.0431Z" fill="#245B91"/>
<path opacity="0.6" d="M109.651 15.3031C109.651 16.7974 109.854 17.2729 110.937 17.726V17.7702H106.378V17.7253C107.462 17.2722 107.665 16.7967 107.665 15.3025V3.28057C107.665 1.98994 107.349 1.3108 106.266 0.85771V0.8125H109.651V15.3031Z" fill="#245B91"/>
<path opacity="0.6" d="M117.098 17.5883L113.103 9.21092C112.359 7.64903 112.133 7.33191 111.388 6.81117V6.76562H115.451V6.81281C114.886 7.06163 114.773 7.35599 114.773 7.80908C114.773 8.14865 114.931 8.71427 115.157 9.21257L118.046 15.3714L120.642 9.32609C120.822 8.91854 120.912 8.51099 120.912 8.14865C120.912 7.55994 120.642 7.06163 120.01 6.81281V6.76727H123.079V6.81281C122.289 7.33355 121.973 7.8543 121.274 9.43929L116.692 19.966C115.789 22.0489 114.864 23.0904 113.352 23.0904C112.133 23.0904 111.275 22.4109 111.275 21.3018C111.275 20.328 111.999 19.762 112.81 19.762C113.126 19.762 113.374 19.8076 113.645 19.9432C113.126 20.1016 112.9 20.4643 112.9 21.0074C112.9 21.6641 113.328 22.1169 114.006 22.1169C114.909 22.1169 115.405 21.3694 116.128 19.762L117.098 17.5883Z" fill="#245B91"/>
<path opacity="0.6" d="M130.616 14.2145C130.436 16.3882 129.623 17.9957 127.592 17.9957C125.832 17.9957 124.725 16.8865 124.725 14.69V7.35414H123.146V7.21851C125.042 6.83373 126.216 5.11278 126.532 2.87109H126.713V6.76509H130.233L130.12 7.35381H126.712V14.6221C126.712 16.0939 127.253 16.8413 128.269 16.8413C129.375 16.8413 130.142 15.9127 130.436 14.2145H130.616Z" fill="#245B91"/>
<path opacity="0.6" d="M135.108 15.3017C135.108 16.796 135.311 17.2715 136.394 17.7246V17.7688H131.835V17.7239C132.919 17.2708 133.122 16.7953 133.122 15.3011V9.23369C133.122 7.94306 132.806 7.2636 131.723 6.81117V6.76562H135.108V15.3017Z" fill="#245B91"/>
<path opacity="0.6" d="M139.869 12.1312C139.869 15.188 141.517 16.9766 143.616 16.9766C145.399 16.9766 146.821 16.0483 147.475 14.1693L147.611 14.2142C147.183 16.6371 145.399 17.9953 142.961 17.9953C140.344 17.9953 137.68 16.0483 137.68 12.4711C137.68 8.78042 140.344 6.53906 143.39 6.53906C145.828 6.53906 147.362 7.85213 147.362 9.32393C147.362 10.3654 146.617 11.0221 145.692 11.0221C144.903 11.0221 144.316 10.5238 144.316 9.98063C144.447 10.0226 144.584 10.0448 144.722 10.0466C145.354 10.0466 145.76 9.5942 145.76 8.82563C145.76 7.82936 145.06 6.99182 143.39 6.99182C141.269 6.99182 139.869 9.1652 139.869 12.1312Z" fill="#245B91"/>
<path opacity="0.6" d="M150.613 8.94014C150.613 10.0493 151.041 10.5928 153.344 11.136C156.346 11.8382 157.384 12.8569 157.384 14.6673C157.384 16.909 155.398 17.9953 153.299 17.9953C151.742 17.9953 150.794 17.4066 150.094 17.4066C149.667 17.4066 149.394 17.6785 149.123 17.9953L148.875 13.6938H148.92C149.891 16.0483 151.223 17.5429 153.299 17.5429C154.653 17.5429 155.759 16.7047 155.759 15.2785C155.759 13.9429 154.541 13.4671 152.577 13.0143C149.981 12.4032 149.057 11.3161 149.057 9.61796C149.057 7.62575 150.817 6.53906 152.758 6.53906C154.157 6.53906 154.857 7.15022 155.625 7.15022C156.052 7.15022 156.37 6.8783 156.753 6.53906V10.2747H156.708C155.896 8.46362 154.564 6.99182 152.758 6.99182C151.358 6.99281 150.613 7.89866 150.613 8.94014Z" fill="#245B91"/>
<path opacity="0.6" d="M135.062 5.15625H133.27V5.86641H135.062V5.15625Z" fill="#245B91"/>
</g>
<path d="M37.8036 1.92188V1.96708C36.7654 2.5558 36.5397 3.23494 36.5397 4.72951V17.1821H39.5418C42.3625 17.1821 43.5139 15.6641 44.9807 12.9251H45.0261L44.2363 17.7701H31.8906V17.7252C32.9288 17.1362 33.1545 16.4571 33.1545 14.9628V4.72951C33.1545 3.23494 32.9288 2.5558 31.8906 1.96708V1.92188H37.8036Z" fill="#245B91"/>
<path d="M56.2866 11.723H48.8381C48.8381 14.5983 50.3279 16.4552 52.6299 16.4552C54.1194 16.4552 55.4287 15.7292 56.1057 14.1452L56.2412 14.2112C55.6767 16.6113 53.7586 17.9923 51.2306 17.9923C48.116 17.9923 45.543 15.8866 45.543 12.2173C45.543 8.70745 48.1387 6.39844 51.2082 6.39844C54.6823 6.4024 56.2866 8.6893 56.2866 11.723ZM53.0816 11.2478C53.0816 8.80216 52.8102 6.83272 51.1855 6.83272C49.8536 6.83272 48.9513 8.57578 48.8608 11.2478H53.0816Z" fill="#245B91"/>
<path d="M58.951 17.7684H55.6328V17.7235C56.8065 17.1117 57.5286 16.3194 58.4766 15.0739L60.5306 12.3349L58.6118 9.32369C57.7546 7.98785 57.1904 7.4219 56.0621 6.67445V6.62891H61.4783V6.67445C61.2523 6.85595 61.1625 7.05923 61.1625 7.35359C61.1398 7.85189 61.5461 8.44061 61.975 9.11975L63.081 10.8404L64.2323 9.11975C64.6159 8.59901 64.9093 8.03306 64.9093 7.5803C64.9093 7.17275 64.6836 6.85595 64.3001 6.67445V6.62891H67.5725V6.67445C66.3988 7.28561 65.6767 8.10104 64.7741 9.34745L63.3744 11.2944L65.7669 15.0756C66.6699 16.4345 67.2113 17.0005 68.3623 17.7252V17.7684H62.9231V17.7235C63.1484 17.5423 63.2612 17.3381 63.2612 17.0668C63.2389 16.5685 62.8777 15.957 62.4491 15.3006L60.8467 12.8101L59.0408 15.3006C58.6789 15.7762 58.3411 16.2966 58.3411 16.7721C58.3411 17.1797 58.5441 17.5196 58.951 17.7235V17.7684Z" fill="#245B91"/>
<defs>
<linearGradient id="paint0_linear_7286_24154" x1="26.1988" y1="13.1005" x2="14.8966" y2="13.1005" gradientUnits="userSpaceOnUse">
<stop stop-color="#245B91" stop-opacity="0"/>
<stop offset="1" stop-color="#245B91"/>
</linearGradient>
<linearGradient id="paint1_linear_7286_24154" x1="1718.13" y1="10341.8" x2="3805.54" y2="10341.8" gradientUnits="userSpaceOnUse">
<stop stop-color="#245B91" stop-opacity="0"/>
<stop offset="1" stop-color="#245B91"/>
</linearGradient>
<linearGradient id="paint2_linear_7286_24154" x1="1269.4" y1="9971.4" x2="3356.73" y2="9971.4" gradientUnits="userSpaceOnUse">
<stop stop-color="#245B91" stop-opacity="0"/>
<stop offset="1" stop-color="#245B91"/>
</linearGradient>
<linearGradient id="paint3_linear_7286_24154" x1="8009.03" y1="9971.4" x2="4745.95" y2="9971.4" gradientUnits="userSpaceOnUse">
<stop stop-color="#245B91" stop-opacity="0"/>
<stop offset="1" stop-color="#245B91"/>
</linearGradient>
</defs>
</svg>
