<svg width="167" height="32" viewBox="0 0 167 32" fill="none" xmlns="http://www.w3.org/2000/svg">
<path d="M21.6809 6.67065V18.0969L17.4328 21.1065L16.065 22.0754L15.511 22.4681L13.96 23.5667L13.4215 23.9481L13.4083 23.958L13.3945 23.9673V12.541L13.4083 12.5315L21.6809 6.67065Z" fill="#F3F8FF"/>
<path opacity="0.72" d="M13.4211 12.541V23.9673L13.408 23.958L13.3941 23.9481L12.8556 23.5667L11.3046 22.4681L10.7507 22.0754L9.38287 21.1065L5.13477 18.0969V6.67065L13.408 12.5315L13.4211 12.541Z" fill="#F3F8FF"/>
<path d="M23.7984 10.1687V20.1624L17.4335 24.6722L16.0657 25.6411L15.5117 26.0334V23.2674L16.0657 22.875L17.4335 21.9058L22.247 18.4953V11.2673L23.7984 10.1687Z" fill="#F3F8FF"/>
<path d="M11.3059 23.2674V26.0334L10.7519 25.6411L9.38412 24.6722L3.01953 20.1624V10.1687L4.57055 11.2673V18.4953L9.38412 21.9058L10.7519 22.875L11.3059 23.2674Z" fill="#F3F8FF"/>
<path d="M9.38205 25.5646V27.2317L1.0957 21.3614V13.3552L2.46349 14.3149V20.6627L9.38205 25.5646Z" fill="#F3F8FF"/>
<path d="M25.7199 13.3552V21.3614L17.4336 27.2317V25.5646L24.3521 20.6627V14.3149L25.7199 13.3552Z" fill="#F3F8FF"/>
<path d="M80.9204 22.0002C80.5369 22.5437 79.8142 22.9513 78.8888 22.9513C77.67 22.9513 76.9927 22.1593 76.8802 20.9584C76.8802 20.8683 76.8351 20.1208 76.8351 19.8717C76.5871 21.4557 74.9618 22.9285 73.066 22.9285C71.2827 22.9285 69.8613 22.0226 69.8613 20.1208C69.8613 17.6983 72.411 17.132 75.0973 16.6341L76.8121 16.3169V15.0263C76.8121 13.3737 76.045 11.9698 74.1946 11.9698C72.5242 11.9698 71.892 12.8302 71.892 13.8264C71.892 14.5283 72.2982 15.0263 72.9301 15.0263C73.0315 15.0259 73.1315 15.0034 73.2232 14.9603C73.1107 15.6398 72.5913 15.979 71.9374 15.979C71.0117 15.979 70.2896 15.3679 70.2896 14.3264C70.2896 12.8546 71.8686 11.5415 74.1943 11.5415C77.1282 11.5415 78.8885 12.6731 78.8885 15.3679C78.8885 17.3828 78.8207 18.8771 78.8207 20.2581C78.8207 21.5039 79.2951 22.1375 80.2428 22.1375C80.4807 22.1397 80.7149 22.0771 80.9201 21.9563L80.9204 22.0002ZM75.2999 17.0416C73.066 17.4706 71.9824 18.287 71.9824 19.8945C71.9824 21.3887 72.818 21.9319 73.9009 21.9319C75.3226 21.9319 76.7223 20.732 76.7674 18.6263L76.8121 16.7473L75.2999 17.0416Z" fill="#F3F8FF"/>
<path d="M84.6883 11.7659V14.9151C85.2972 12.7866 86.7196 11.5415 88.6608 11.5415C90.7371 11.5415 92.1806 12.8773 92.1806 15.481V20.302C92.1806 21.7963 92.3835 22.2718 93.4664 22.7249V22.7691H88.9088V22.7242C89.992 22.2711 90.195 21.7956 90.195 20.3014V15.6602C90.195 14.0528 89.5858 12.6714 87.8029 12.6714C85.9969 12.6714 84.6883 14.3924 84.6883 16.9736V20.302C84.6883 21.7963 84.8916 22.2718 85.9745 22.7249V22.7691H81.4152V22.7242C82.4988 22.2711 82.7021 21.7956 82.7021 20.3014V14.234C82.7021 12.9433 82.3863 12.2639 81.3027 11.8114V11.7659H84.6883Z" fill="#F3F8FF"/>
<path d="M105.95 22.0002C105.566 22.5437 104.844 22.9513 103.918 22.9513C102.701 22.9513 102.023 22.1593 101.91 20.9584C101.91 20.8683 101.865 20.1208 101.865 19.8717C101.616 21.4557 99.9914 22.9285 98.0956 22.9285C96.3127 22.9285 94.8906 22.0226 94.8906 20.1208C94.8906 17.6983 97.441 17.132 100.127 16.6341L101.842 16.3169V15.0263C101.842 13.3737 101.075 11.9698 99.2242 11.9698C97.5542 11.9698 96.9216 12.8302 96.9216 13.8264C96.9216 14.5283 97.3275 15.0263 97.9594 15.0263C98.0608 15.0259 98.161 15.0034 98.2528 14.9603C98.14 15.6398 97.6209 15.979 96.9663 15.979C96.0413 15.979 95.3186 15.3679 95.3186 14.3264C95.3186 12.8546 96.8976 11.5415 99.2236 11.5415C102.158 11.5415 103.918 12.6731 103.918 15.3679C103.918 17.3828 103.85 18.8771 103.85 20.2581C103.85 21.5039 104.324 22.1375 105.272 22.1375C105.51 22.1397 105.744 22.0771 105.949 21.9563L105.95 22.0002ZM100.33 17.0416C98.0956 17.4706 97.012 18.287 97.012 19.8945C97.012 21.3887 97.8473 21.9319 98.9308 21.9319C100.353 21.9319 101.752 20.732 101.797 18.6263L101.842 16.7473L100.33 17.0416Z" fill="#F3F8FF"/>
<path d="M109.651 20.3019C109.651 21.7961 109.854 22.2717 110.937 22.7248V22.769H106.378V22.7241C107.462 22.271 107.665 21.7955 107.665 20.3012V8.27935C107.665 6.98872 107.349 6.30958 106.266 5.85649V5.81128H109.651V20.3019Z" fill="#F3F8FF"/>
<path d="M117.098 22.5885L113.103 14.2112C112.359 12.6493 112.133 12.3321 111.388 11.8114V11.7659H115.451V11.8131C114.886 12.0619 114.773 12.3562 114.773 12.8093C114.773 13.1489 114.931 13.7145 115.157 14.2128L118.046 20.3716L120.642 14.3263C120.822 13.9188 120.912 13.5112 120.912 13.1489C120.912 12.5602 120.642 12.0619 120.01 11.8131V11.7675H123.079V11.8131C122.289 12.3338 121.973 12.8545 121.274 14.4395L116.692 24.9662C115.789 27.0492 114.864 28.0906 113.352 28.0906C112.133 28.0906 111.275 27.4112 111.275 26.302C111.275 25.3282 111.999 24.7623 112.81 24.7623C113.126 24.7623 113.374 24.8078 113.645 24.9434C113.126 25.1018 112.9 25.4645 112.9 26.0077C112.9 26.6644 113.328 27.1171 114.006 27.1171C114.909 27.1171 115.405 26.3697 116.128 24.7623L117.098 22.5885Z" fill="#F3F8FF"/>
<path d="M130.616 19.215C130.436 21.3887 129.623 22.9961 127.592 22.9961C125.832 22.9961 124.725 21.887 124.725 19.6905V12.3546H123.146V12.219C125.042 11.8342 126.216 10.1133 126.532 7.87158H126.713V11.7656H130.233L130.12 12.3543H126.712V19.6226C126.712 21.0944 127.253 21.8418 128.269 21.8418C129.375 21.8418 130.142 20.9132 130.436 19.215H130.616Z" fill="#F3F8FF"/>
<path d="M135.108 20.302C135.108 21.7962 135.311 22.2717 136.394 22.7248V22.7691H131.835V22.7242C132.919 22.2711 133.122 21.7956 133.122 20.3013V14.2339C133.122 12.9433 132.806 12.2638 131.723 11.8114V11.7659H135.108V20.302Z" fill="#F3F8FF"/>
<path d="M139.869 17.132C139.869 20.1888 141.517 21.9774 143.616 21.9774C145.399 21.9774 146.821 21.0491 147.475 19.1701L147.611 19.2149C147.183 21.6378 145.399 22.9961 142.961 22.9961C140.344 22.9961 137.68 21.0491 137.68 17.4719C137.68 13.7812 140.344 11.5398 143.39 11.5398C145.828 11.5398 147.362 12.8529 147.362 14.3247C147.362 15.3661 146.617 16.0228 145.692 16.0228C144.903 16.0228 144.316 15.5245 144.316 14.9814C144.447 15.0233 144.584 15.0456 144.722 15.0474C145.354 15.0474 145.76 14.5949 145.76 13.8264C145.76 12.8301 145.06 11.9926 143.39 11.9926C141.269 11.9926 139.869 14.1659 139.869 17.132Z" fill="#F3F8FF"/>
<path d="M150.613 13.9399C150.613 15.049 151.041 15.5925 153.344 16.1357C156.346 16.838 157.384 17.8567 157.384 19.667C157.384 21.9087 155.398 22.9951 153.299 22.9951C151.742 22.9951 150.794 22.4064 150.094 22.4064C149.667 22.4064 149.394 22.6783 149.123 22.9951L148.875 18.6935H148.92C149.891 21.0481 151.223 22.5427 153.299 22.5427C154.653 22.5427 155.759 21.7045 155.759 20.2782C155.759 18.9427 154.541 18.4668 152.577 18.0141C149.981 17.4029 149.057 16.3159 149.057 14.6177C149.057 12.6255 150.817 11.5388 152.758 11.5388C154.157 11.5388 154.857 12.15 155.625 12.15C156.052 12.15 156.37 11.8781 156.753 11.5388V15.2744H156.708C155.896 13.4634 154.564 11.9916 152.758 11.9916C151.358 11.9926 150.613 12.8984 150.613 13.9399Z" fill="#F3F8FF"/>
<path opacity="0.6" d="M135.062 10.1548H133.27V10.8649H135.062V10.1548Z" fill="#F3F8FF"/>
<path d="M37.8036 6.92065V6.96586C36.7654 7.55458 36.5397 8.23372 36.5397 9.72829V22.1808H39.5418C42.3625 22.1808 43.5139 20.6628 44.9807 17.9238H45.0261L44.2363 22.7689H31.8906V22.724C32.9288 22.135 33.1545 21.4558 33.1545 19.9616V9.72829C33.1545 8.23372 32.9288 7.55458 31.8906 6.96586V6.92065H37.8036Z" fill="#F3F8FF"/>
<path d="M56.2866 16.7245H48.8381C48.8381 19.5997 50.3279 21.4566 52.6299 21.4566C54.1194 21.4566 55.4287 20.7306 56.1057 19.1466L56.2412 19.2126C55.6767 21.6127 53.7586 22.9938 51.2306 22.9938C48.116 22.9938 45.543 20.8881 45.543 17.2188C45.543 13.7089 48.1387 11.3999 51.2082 11.3999C54.6823 11.4039 56.2866 13.6908 56.2866 16.7245ZM53.0816 16.2492C53.0816 13.8036 52.8102 11.8342 51.1855 11.8342C49.8536 11.8342 48.9513 13.5772 48.8608 16.2492H53.0816Z" fill="#F3F8FF"/>
<path d="M58.951 22.7689H55.6328V22.724C56.8065 22.1122 57.5286 21.3198 58.4766 20.0744L60.5306 17.3354L58.6118 14.3242C57.7546 12.9883 57.1904 12.4224 56.0621 11.6749V11.6294H61.4783V11.6749C61.2523 11.8564 61.1625 12.0597 61.1625 12.3541C61.1398 12.8524 61.5461 13.4411 61.975 14.1202L63.081 15.8409L64.2323 14.1202C64.6159 13.5995 64.9093 13.0335 64.9093 12.5808C64.9093 12.1732 64.6836 11.8564 64.3001 11.6749V11.6294H67.5725V11.6749C66.3988 12.2861 65.6767 13.1015 64.7741 14.3479L63.3744 16.2949L65.7669 20.0761C66.6699 21.435 67.2113 22.001 68.3623 22.7256V22.7689H62.9231V22.724C63.1484 22.5428 63.2612 22.3386 63.2612 22.0673C63.2389 21.569 62.8777 20.9575 62.4491 20.3011L60.8467 17.8106L59.0408 20.3011C58.6789 20.7767 58.3411 21.2971 58.3411 21.7726C58.3411 22.1802 58.5441 22.5201 58.951 22.724V22.7689Z" fill="#F3F8FF"/>
</svg>
